<svg width="62" height="62" viewBox="0 0 62 62" fill="none" xmlns="http://www.w3.org/2000/svg">
<g id="Group">
<g id="Group_2">
<path id="Vector" d="M11.9999 57.6H8.7999C6.0999 57.6 3.8999 55.4 3.8999 52.7V49.4C3.8999 48.3 2.9999 47.4 1.8999 47.4C0.799902 47.4 -0.100098 48.3 -0.100098 49.4V52.7C-0.100098 57.6 3.8999 61.5 8.6999 61.5H11.9999C13.0999 61.5 13.9999 60.6 13.9999 59.5C13.9999 58.4 13.0999 57.6 11.9999 57.6Z" fill="white"/>
<path id="Vector_2" d="M59.6 47.5C58.5 47.5 57.6 48.4 57.6 49.5V52.8C57.6 55.5 55.4 57.7 52.7 57.7H49.5C48.4 57.7 47.5 58.6 47.5 59.7C47.5 60.8 48.4 61.7 49.5 61.7H52.7C57.6 61.7 61.5 57.7 61.5 52.9V49.6C61.6 48.4 60.7 47.5 59.6 47.5Z" fill="white"/>
<path id="Vector_3" d="M52.6997 0H48.6997C47.5997 0 46.6997 0.9 46.6997 2C46.6997 3.1 47.5997 4 48.6997 4H52.6997C55.3997 4 57.5997 6.2 57.5997 8.9V13C57.5997 14.1 58.4997 15 59.5997 15C60.6997 15 61.5997 14.1 61.5997 13V8.8C61.5997 4 57.5997 0 52.6997 0Z" fill="white"/>
<path id="Vector_4" d="M12.1 0H8.8C4 0 0 4 0 8.8V12C0 13.1 0.9 14 2 14C3.1 14 4 13.1 4 12V8.8C4 6.1 6.2 3.9 8.9 3.9H12.2C13.3 3.9 14.2 3 14.2 1.9C14.2 0.8 13.2 0 12.1 0Z" fill="white"/>
<path id="Vector_5" d="M47.5997 36.5C47.6997 36.1 47.5997 35.7 47.2997 35.4L19.8997 10.3C19.5997 10 19.1997 10 18.7997 10.1C18.3997 10.3 18.1997 10.6 18.1997 11V48.2C18.1997 48.6 18.3997 49 18.7997 49.1C19.1997 49.3 19.5997 49.2 19.8997 48.9L27.2997 41.9L31.8997 52.3C31.9997 52.6 32.2997 52.8 32.5997 52.9C32.6997 52.9 32.6997 52.9 32.7997 52.9C33.0997 52.9 33.2997 52.8 33.4997 52.6C35.2997 50.8 36.4997 50.6 37.7997 50.5C38.6997 50.4 39.5997 50.3 40.5997 49.7C40.9997 49.5 41.1997 48.9 40.9997 48.4L36.3997 37.9L46.5997 37.2C47.0997 37.1 47.3997 36.9 47.5997 36.5ZM31.4997 34.6C31.2997 34.9 31.2997 35.2 31.3997 35.5L36.2997 46.8C36.1997 46.8 36.0997 46.8 35.9997 46.9C35.3997 47 34.7997 47.1 33.9997 47.7L29.0997 36.6C28.9997 36.2 28.7997 36 28.4997 36C28.3997 36 28.3997 36 28.2997 36C27.9997 36 27.7997 36.1 27.5997 36.3L21.9997 41.5V17.1L39.9997 33.7L32.2997 34.2C31.9997 34.2 31.6997 34.4 31.4997 34.6Z" fill="white"/>
</g>
</g>
</svg>
