<svg width="50" height="67" viewBox="0 0 50 67" fill="none" xmlns="http://www.w3.org/2000/svg">
<g id="Objects" clip-path="url(#clip0_2301_18)">
<g id="symbol">
<g id="Group">
<path id="Vector" d="M39.7819 14.5719C33.3379 14.5719 29.2452 16.5271 25.288 18.4141C21.6629 20.1513 18.2342 21.7863 12.8676 21.7863C9.31878 21.7922 5.81596 20.9788 2.62914 19.4087C1.95154 19.109 1.27393 18.7684 0.542124 18.4346L0.00683594 18.1825V39.9822C0.00683594 60.6715 24.9967 66.9934 24.9967 66.9934C24.9967 66.9934 49.9865 60.6715 49.9865 39.9822V16.4794C46.7382 15.1912 43.2737 14.5436 39.7819 14.5719ZM43.7255 39.989C43.7255 46.236 40.5543 51.5701 34.2933 55.8347C31.403 57.7637 28.2757 59.3072 24.9899 60.4262C20.2467 58.8389 6.26784 53.0211 6.26784 39.989V28.1559C8.4054 28.8168 10.6314 29.143 12.8676 29.1232C18.241 29.1232 21.6764 27.4883 25.288 25.7511C29.2452 23.8572 33.3515 21.9089 39.7819 21.9089C41.1008 21.903 42.4185 21.9895 43.7255 22.1678V39.989Z" fill="#F1F2F7"/>
<path id="Vector_2" d="M43.7255 0.265796C42.4096 0.0853321 41.0828 -0.00345087 39.7548 0.000102567C33.304 0.000102567 29.2113 1.94846 25.2542 3.84231C21.629 5.57947 18.2004 7.21446 12.8338 7.21446C10.6097 7.22638 8.39635 6.90259 6.26784 6.25391C4.29458 5.60006 2.37369 4.79614 0.521818 3.84913L0.00683594 3.60387V10.9681L0.521818 11.2133C2.37253 12.161 4.29364 12.9627 6.26784 13.6113C8.39486 14.2667 10.6092 14.5906 12.8338 14.5718C18.2071 14.5718 21.6426 12.9369 25.2609 11.1997C29.2181 9.31266 33.3176 7.35751 39.7548 7.35751C41.0852 7.35647 42.4142 7.44751 43.7323 7.63C45.8796 7.92561 47.9839 8.47911 50 9.27861V1.92121C47.9817 1.11966 45.8752 0.563905 43.7255 0.265796Z" fill="#F1F2F7"/>
</g>
</g>
</g>
<defs>
<clipPath id="clip0_2301_18">
<rect width="50" height="67" fill="white"/>
</clipPath>
</defs>
</svg>
