<svg width="70" height="70" viewBox="0 0 70 70" fill="none" xmlns="http://www.w3.org/2000/svg">
<g id="inst">
<rect id="Rectangle 6494" width="70" height="70" rx="15" fill="#1D2B50"/>
<path id="Vector" d="M27.3349 35C27.3349 31.3183 30.3189 28.3328 34.0008 28.3328C37.6827 28.3328 40.6683 31.3183 40.6683 35C40.6683 38.6818 37.6827 41.6672 34.0008 41.6672C30.3189 41.6672 27.3349 38.6818 27.3349 35ZM23.7306 35C23.7306 40.6721 28.3286 45.2698 34.0008 45.2698C39.6731 45.2698 44.271 40.6721 44.271 35C44.271 29.328 39.6731 24.7302 34.0008 24.7302C28.3286 24.7302 23.7306 29.328 23.7306 35ZM42.2774 24.3231C42.2773 24.7978 42.4178 25.2618 42.6815 25.6566C42.945 26.0514 43.3197 26.3591 43.7582 26.541C44.1967 26.7228 44.6792 26.7706 45.1449 26.6781C45.6105 26.5857 46.0382 26.3573 46.374 26.0218C46.7098 25.6862 46.9386 25.2587 47.0313 24.7932C47.1242 24.3277 47.0768 23.8451 46.8953 23.4065C46.7138 22.9678 46.4064 22.5929 46.0118 22.329C45.6172 22.0652 45.1532 21.9242 44.6785 21.924H44.6775C44.0413 21.9243 43.4311 22.1771 42.9811 22.627C42.5311 23.0768 42.278 23.6868 42.2774 24.3231ZM25.9205 51.2795C23.9705 51.1907 22.9106 50.8659 22.2063 50.5915C21.2725 50.228 20.6062 49.795 19.9057 49.0956C19.2052 48.396 18.7716 47.7304 18.4096 46.7967C18.135 46.0926 17.8103 45.0325 17.7216 43.0826C17.6246 40.9744 17.6053 40.3411 17.6053 35.0002C17.6053 29.6592 17.6262 29.0277 17.7216 26.9178C17.8104 24.9678 18.1376 23.9098 18.4096 23.2037C18.7732 22.2699 19.2061 21.6037 19.9057 20.9033C20.6053 20.2028 21.2709 19.7692 22.2063 19.4073C22.9103 19.1327 23.9705 18.8078 25.9205 18.7192C28.0287 18.6222 28.662 18.6029 34.0008 18.6029C39.3396 18.6029 39.9735 18.6238 42.0836 18.7192C44.0336 18.808 45.0916 19.1353 45.7978 19.4073C46.7316 19.7692 47.3979 20.2038 48.0983 20.9033C48.7988 21.6027 49.2308 22.2699 49.5944 23.2037C49.869 23.9077 50.1938 24.9678 50.2824 26.9178C50.3794 29.0277 50.3987 29.6592 50.3987 35.0002C50.3987 40.3411 50.3794 40.9727 50.2824 43.0826C50.1936 45.0325 49.8672 46.0923 49.5944 46.7967C49.2308 47.7304 48.7979 48.3967 48.0983 49.0956C47.3988 49.7945 46.7316 50.228 45.7978 50.5915C45.0937 50.8661 44.0336 51.1909 42.0836 51.2795C39.9753 51.3766 39.342 51.3959 34.0008 51.3959C28.6596 51.3959 28.0281 51.3766 25.9205 51.2795ZM25.7549 15.1211C23.6256 15.2181 22.1708 15.5557 20.9001 16.0501C19.5842 16.5606 18.4703 17.2456 17.3571 18.357C16.2439 19.4683 15.5607 20.584 15.0501 21.8998C14.5557 23.1712 14.2181 24.6253 14.1211 26.7544C14.0225 28.887 14 29.5687 14 35C14 40.4314 14.0225 41.1131 14.1211 43.2456C14.2181 45.3749 14.5557 46.8288 15.0501 48.1002C15.5607 49.4153 16.2441 50.5322 17.3571 51.643C18.4701 52.7539 19.5842 53.438 20.9001 53.95C22.1732 54.4444 23.6256 54.7819 25.7549 54.8789C27.8885 54.9758 28.5693 55 34.0008 55C39.4324 55 40.1142 54.9774 42.2467 54.8789C44.3761 54.7819 45.8301 54.4444 47.1015 53.95C48.4166 53.438 49.5314 52.7544 50.6445 51.643C51.7577 50.5317 52.4395 49.4153 52.9515 48.1002C53.4459 46.8288 53.7852 45.3747 53.8805 43.2456C53.9774 41.1116 54 40.4314 54 35C54 29.5687 53.9774 28.887 53.8805 26.7544C53.7836 24.6251 53.4459 23.1704 52.9515 21.8998C52.4395 20.5848 51.7559 19.4701 50.6445 18.357C49.5331 17.2438 48.4166 16.5606 47.1031 16.0501C45.8301 15.5557 44.3759 15.2165 42.2483 15.1211C40.1158 15.0242 39.434 15 34.0024 15C28.5709 15 27.8885 15.0226 25.7549 15.1211Z" fill="white"/>
</g>
</svg>
