<svg width="21" height="21" viewBox="0 0 21 21" fill="none" xmlns="http://www.w3.org/2000/svg">
<path id="Vector" d="M7.00084 10.5C7.00084 8.56712 8.56744 6.99972 10.5004 6.99972C12.4334 6.99972 14.0008 8.56712 14.0008 10.5C14.0008 12.4329 12.4334 14.0003 10.5004 14.0003C8.56744 14.0003 7.00084 12.4329 7.00084 10.5ZM5.10858 10.5C5.10858 13.4778 7.52252 15.8917 10.5004 15.8917C13.4784 15.8917 15.8923 13.4778 15.8923 10.5C15.8923 7.5222 13.4784 5.10838 10.5004 5.10838C7.52252 5.10838 5.10858 7.5222 5.10858 10.5ZM14.8457 4.89464C14.8456 5.14382 14.9194 5.38747 15.0578 5.59474C15.1961 5.80197 15.3929 5.96354 15.6231 6.05901C15.8533 6.15447 16.1066 6.17954 16.3511 6.13099C16.5955 6.08248 16.8201 5.96257 16.9964 5.78642C17.1727 5.61028 17.2928 5.38583 17.3415 5.14143C17.3902 4.89703 17.3653 4.64369 17.2701 4.4134C17.1748 4.18312 17.0134 3.98626 16.8062 3.84775C16.599 3.70923 16.3554 3.63523 16.1062 3.6351H16.1057C15.7717 3.63527 15.4513 3.76799 15.2151 4.00415C14.9788 4.24032 14.846 4.56057 14.8457 4.89464ZM6.25828 19.0467C5.23451 19.0001 4.67807 18.8296 4.3083 18.6855C3.81806 18.4947 3.46827 18.2674 3.10051 17.9002C2.73271 17.5329 2.50507 17.1835 2.31505 16.6933C2.1709 16.3236 2.00039 15.7671 1.95384 14.7433C1.90292 13.6366 1.89276 13.3041 1.89276 10.5001C1.89276 7.69608 1.90376 7.36453 1.95384 6.25682C2.00047 5.23312 2.17224 4.67763 2.31505 4.30693C2.50591 3.81671 2.73322 3.46693 3.10051 3.09922C3.46776 2.73147 3.81722 2.50383 4.3083 2.31382C4.6779 2.16968 5.23451 1.99912 6.25828 1.95258C7.36507 1.90168 7.69757 1.89151 10.5004 1.89151C13.3033 1.89151 13.6361 1.90252 14.7439 1.95258C15.7676 1.9992 16.3231 2.17102 16.6938 2.31382C17.1841 2.50383 17.5339 2.73197 17.9016 3.09922C18.2694 3.46643 18.4962 3.81671 18.6871 4.30693C18.8312 4.67653 19.0017 5.23312 19.0483 6.25682C19.0992 7.36453 19.1093 7.69608 19.1093 10.5001C19.1093 13.3041 19.0992 13.6357 19.0483 14.7433C19.0017 15.7671 18.8303 16.3235 18.6871 16.6933C18.4962 17.1835 18.2689 17.5333 17.9016 17.9002C17.5344 18.2671 17.1841 18.4947 16.6938 18.6855C16.3242 18.8297 15.7676 19.0002 14.7439 19.0467C13.637 19.0977 13.3045 19.1079 10.5004 19.1079C7.69631 19.1079 7.36473 19.0977 6.25828 19.0467ZM6.1713 0.0635878C5.05347 0.114492 4.28966 0.291732 3.62257 0.551292C2.93172 0.819336 2.34691 1.17894 1.76247 1.7624C1.17807 2.34587 0.819381 2.9316 0.551319 3.62242C0.291737 4.28988 0.114512 5.05327 0.0635947 6.17106C0.0118377 7.29066 0 7.64858 0 10.5C0 13.3515 0.0118377 13.7094 0.0635947 14.8289C0.114512 15.9468 0.291737 16.7101 0.551319 17.3776C0.819381 18.068 1.17815 18.6544 1.76247 19.2376C2.34682 19.8208 2.93172 20.18 3.62257 20.4488C4.29092 20.7083 5.05347 20.8855 6.1713 20.9364C7.29148 20.9873 7.64887 21 10.5004 21C13.352 21 13.7099 20.9882 14.8295 20.9364C15.9475 20.8855 16.7108 20.7083 17.3783 20.4488C18.0687 20.18 18.654 19.8211 19.2384 19.2376C19.8228 18.6541 20.1807 18.068 20.4495 17.3776C20.7091 16.7101 20.8872 15.9467 20.9372 14.8289C20.9882 13.7086 21 13.3515 21 10.5C21 7.64858 20.9882 7.29066 20.9372 6.17106C20.8864 5.05319 20.7091 4.28946 20.4495 3.62242C20.1807 2.93202 19.8218 2.34679 19.2384 1.7624C18.6549 1.17802 18.0687 0.819336 17.3792 0.551292C16.7108 0.291732 15.9474 0.113652 14.8304 0.0635878C13.7108 0.0127258 13.3528 0 10.5013 0C7.64971 0 7.29148 0.0118858 6.1713 0.0635878Z" fill="#404040"/>
</svg>
