<svg width="23" height="21" viewBox="0 0 23 21" fill="none" xmlns="http://www.w3.org/2000/svg">
<path id="Vector" d="M21.2973 0.00215017C21.0132 0.0231564 20.7344 0.090893 20.4717 0.202717H20.4682C20.216 0.30435 19.0171 0.817011 17.1944 1.5941L10.6626 4.39035C5.97574 6.39602 1.36849 8.37111 1.36849 8.37111L1.42335 8.34953C1.42335 8.34953 1.1057 8.45566 0.773889 8.6868C0.568902 8.81939 0.392509 8.99288 0.255386 9.19676C0.0925789 9.4396 -0.0383742 9.81106 0.0102908 10.1951C0.0899245 10.8445 0.504019 11.2339 0.801319 11.4489C1.10216 11.6665 1.38884 11.7682 1.38884 11.7682H1.39592L5.71649 13.2477C5.91026 13.88 7.0331 17.6323 7.30297 18.4966C7.46223 19.0129 7.61708 19.3358 7.81085 19.5822C7.90464 19.7081 8.01436 19.8133 8.1462 19.8979C8.21474 19.9384 8.28782 19.9704 8.36386 19.9932L8.31962 19.9824C8.33289 19.986 8.34351 19.9968 8.35325 20.0004C8.38864 20.0103 8.41253 20.0139 8.45765 20.0211C9.14162 20.2316 9.69109 19.7998 9.69109 19.7998L9.72206 19.7747L12.273 17.4137L16.5484 20.7478L16.6458 20.7901C17.5368 21.1876 18.4393 20.9664 18.9162 20.576C19.3967 20.183 19.5834 19.6802 19.5834 19.6802L19.6143 19.5993L22.9182 2.39457C23.012 1.97005 23.0359 1.57251 22.9324 1.18667C22.8256 0.796167 22.5792 0.460313 22.2414 0.244989C21.9577 0.0697088 21.6288 -0.0148949 21.2973 0.00215017ZM21.2079 1.84593C21.2044 1.90259 21.215 1.8963 21.1902 2.00512V2.01502L17.9173 19.0407C17.9031 19.065 17.8792 19.1181 17.8137 19.1712C17.7447 19.2269 17.6899 19.262 17.4023 19.146L12.173 15.0708L9.0142 17.9974L9.67782 13.6893L18.2216 5.59465C18.5738 5.26187 18.4561 5.19172 18.4561 5.19172C18.4809 4.78339 17.9243 5.07209 17.9243 5.07209L7.15078 11.8563L7.14724 11.8383L1.98344 10.071V10.0674L1.97016 10.0647C1.97922 10.0616 1.98808 10.058 1.99671 10.0539L2.02502 10.0395L2.05245 10.0296C2.05245 10.0296 6.66324 8.05452 11.3501 6.04885C13.6967 5.04421 16.0609 4.03238 17.8792 3.2517C18.9576 2.79031 20.0371 2.33161 21.1176 1.87561C21.1902 1.84683 21.1557 1.84593 21.2079 1.84593Z" fill="#404040"/>
</svg>
