<svg width="70" height="70" viewBox="0 0 70 70" fill="none" xmlns="http://www.w3.org/2000/svg">
<g id="tg">
<rect id="Rectangle 6495" width="70" height="70" rx="15" fill="#1D2B50"/>
<path id="Vector" d="M52.4375 14.1179C51.8657 14.1595 51.3044 14.2937 50.7756 14.5151H50.7685C50.2608 14.7164 47.8472 15.7317 44.1779 17.2707L31.0287 22.8086C21.5934 26.7808 12.3184 30.6924 12.3184 30.6924L12.4288 30.6497C12.4288 30.6497 11.7894 30.8599 11.1214 31.3177C10.7087 31.5802 10.3536 31.9238 10.0776 32.3276C9.74985 32.8086 9.48622 33.5442 9.58419 34.3048C9.74451 35.5909 10.5781 36.3622 11.1766 36.7879C11.7823 37.2189 12.3594 37.4202 12.3594 37.4202H12.3736L21.0715 40.3504C21.4616 41.6026 23.722 49.034 24.2653 50.7458C24.5859 51.7682 24.8976 52.4077 25.2877 52.8957C25.4765 53.1451 25.6974 53.3535 25.9628 53.5209C26.1008 53.6012 26.2479 53.6646 26.401 53.7098L26.3119 53.6884C26.3386 53.6955 26.36 53.7169 26.3796 53.724C26.4508 53.7436 26.4989 53.7507 26.5898 53.765C27.9667 54.1818 29.0728 53.3268 29.0728 53.3268L29.1352 53.2769L34.2705 48.6011L42.8775 55.2042L43.0735 55.2879C44.8672 56.0752 46.6841 55.6371 47.6442 54.864C48.6114 54.0856 48.9872 53.0899 48.9872 53.0899L49.0496 52.9296L55.7008 18.856C55.8896 18.0153 55.9377 17.228 55.7293 16.4638C55.5143 15.6904 55.0181 15.0253 54.3381 14.5988C53.7671 14.2517 53.1049 14.0841 52.4375 14.1179ZM52.2576 17.7695C52.2505 17.8817 52.2719 17.8692 52.222 18.0847V18.1043L45.6331 51.8234C45.6046 51.8715 45.5565 51.9766 45.4247 52.0817C45.2858 52.1921 45.1754 52.2616 44.5964 52.0318L34.0693 43.961L27.7102 49.7572L29.0461 41.225L46.2459 25.1937C46.9548 24.5347 46.7179 24.3957 46.7179 24.3957C46.7678 23.587 45.6474 24.1588 45.6474 24.1588L23.9589 37.5948L23.9518 37.5592L13.5564 34.059V34.0519L13.5297 34.0465C13.5479 34.0405 13.5657 34.0333 13.5831 34.0252L13.6401 33.9967L13.6953 33.9771C13.6953 33.9771 22.9774 30.0654 32.4127 26.0932C37.1366 24.1036 41.8961 22.0997 45.5565 20.5536C47.7274 19.6398 49.9006 18.7313 52.0759 17.8282C52.222 17.7712 52.1525 17.7695 52.2576 17.7695Z" fill="white"/>
</g>
</svg>
